<svg width="256" height="256" fill="none" xmlns="http://www.w3.org/2000/svg"><path fill-rule="evenodd" clip-rule="evenodd" d="M128 0C57.3075 0 0 57.3077 0 128.001 0 198.693 57.3075 256 128 256c70.692 0 128-57.307 128-127.999C256 57.3077 198.692 0 128 0z" fill="#fff"/><path fill-rule="evenodd" clip-rule="evenodd" d="M128 0C57.3075 0 0 57.3077 0 128.001 0 198.693 57.3075 256 128 256c70.692 0 128-57.307 128-127.999C256 57.3077 198.692 0 128 0zM80.4491 107.508l-.9244 3.455 8.3366.037-9.8568 39.481c-1.7187 6.594-3.2388 13.031-5.0657 19.518-1.4655 5.202-4.9189 15.269-11.0952 13.218.214-2.127 1.277-1.394 1.7353-3.492.9518-4.359-2.8387-8.209-8.1011-6.708-5.9518 1.698-6.8231 9.8-1.0311 12.462 4.9883 2.293 12.814.827 17.4309-1.178 17.6466-7.662 22.9014-37.5 27.639-56.379 1.3574-5.409 3.1544-11.567 4.1604-16.919 16.817.002 17.589-.767 17.784 17.193.123 11.353-.445 22.57-.876 33.837l2.411-.015 6.699-9.369c3.467-4.727 18.496-27.195 19.899-28.3l3.753 37.679c3.903.019 3.645-1.343 6.979-4.019 1.12-.899 1.734-1.73 2.799-2.653l8.357-8.041c1.842-1.876 3.657-3.529 5.347-5.585 4.548-5.535 4.999-5.111 9.346-12.507 2.243-3.814 5.731-11.193 5.611-16.744-.071-3.237-1.535-6.376-3.257-7.815-4.328-3.615-12.896-.763-11.985 7.148.695 6.044 11.071 7.424 1.011 22.795-1.444 2.205-8.753 10.837-10.359 11.576l-4.395-42.007c-.698-1.99-2.549-1.303-3.459-.074l-22.706 32.203c-1.405-13.359 2.239-12.915-3.141-33.035l-28.812 4.031c1.584-9.148 10.131-33.5797 19.767-30.4253.832 3.0968-4.89 7.5556.78 11.1838 4.463 2.8566 8.844-1.0273 9.178-5.2661.858-10.9174-13.616-10.2599-21.569-7.1061-8.16 3.2359-11.864 9.1274-16.1618 15.947-8.5025 13.4907-4.976 14.3087-16.2281 15.8737z" fill="#231F20"/></svg>